<svg width="46" height="46" viewBox="0 0 46 46" fill="none" xmlns="http://www.w3.org/2000/svg">
<path d="M13.7949 36.8C11.2658 36.8 9.21958 38.87 9.21958 41.4C9.21958 43.93 11.2658 46 13.7949 46C16.3239 46 18.3932 43.93 18.3932 41.4C18.3932 38.87 16.3239 36.8 13.7949 36.8ZM0 2.3C0 3.565 1.03462 4.6 2.29915 4.6H4.59829L12.8752 22.057L9.77137 27.669C8.09299 30.751 10.3002 34.5 13.7949 34.5H39.0855C40.35 34.5 41.3846 33.465 41.3846 32.2C41.3846 30.935 40.35 29.9 39.0855 29.9H13.7949L16.3239 25.3H33.4526C35.1769 25.3 36.6944 24.357 37.4761 22.931L45.707 8.004C46.5577 6.486 45.4541 4.6 43.7068 4.6H9.67941L8.13898 1.311C7.77111 0.506 6.94342 0 6.06975 0H2.29915C1.03462 0 0 1.035 0 2.3ZM36.7863 36.8C34.2573 36.8 32.211 38.87 32.211 41.4C32.211 43.93 34.2573 46 36.7863 46C39.3154 46 41.3846 43.93 41.3846 41.4C41.3846 38.87 39.3154 36.8 36.7863 36.8Z" fill="#073B3A"/>
</svg>
