<svg width="63" height="54" viewBox="0 0 63 54" fill="none" xmlns="http://www.w3.org/2000/svg">
<path d="M61.3655 2.30251H54.1973V1.94943C54.1973 1.18513 53.577 0.564819 52.8127 0.564819C52.0484 0.564819 51.4281 1.18513 51.4281 1.94943V2.30251H44.0702C43.3059 2.30251 42.6856 2.92282 42.6856 3.68713C42.6856 4.45213 43.3059 5.07174 44.0702 5.07174H51.4281V6.70005C50.1141 7.2179 49.1781 8.49451 49.1781 9.9899V10.5714H43.8563C43.2921 9.0532 41.8327 7.96697 40.1213 7.96697H22.9749C21.2635 7.96697 19.8048 9.05251 19.2399 10.5714H13.9465V9.9899C13.9465 8.52844 13.0576 7.2719 11.7921 6.7312V5.07243H18.9602C19.7245 5.07243 20.3448 4.45282 20.3448 3.68782C20.3448 2.92351 19.7245 2.3032 18.9602 2.3032H11.7914V1.95013C11.7914 1.18582 11.1711 0.565511 10.4068 0.565511C9.64246 0.565511 9.02215 1.18582 9.02215 1.95013V2.3032H1.66431C0.900001 2.3032 0.279694 2.92351 0.279694 3.68782C0.279694 4.45282 0.900001 5.07243 1.66431 5.07243H9.02215V6.7312C7.75662 7.2719 6.86769 8.52844 6.86769 9.9899V13.9776C6.86769 15.9299 8.45515 17.5187 10.4068 17.5187C12.3584 17.5187 13.9458 15.9299 13.9458 13.9776V13.3407H19.2392C19.7952 14.8361 21.2172 15.9126 22.8946 15.9451V18.8999C22.8946 19.0487 22.9078 19.1948 22.9168 19.3423C21.5086 19.6504 19.8353 20.659 19.053 23.1514L16.6888 33.0818H15.6275C14.8632 33.0818 14.2428 33.7014 14.2428 34.4664C14.2428 35.2307 14.8632 35.8511 15.6275 35.8511H18.5525C18.5511 35.8594 18.5462 35.8649 18.5462 35.8725V47.965C18.5462 48.0717 18.6078 48.1707 18.7048 48.2164L30.0268 53.6683C30.0655 53.6856 30.1071 53.6953 30.1486 53.6953C30.2005 53.6953 30.2518 53.6814 30.2975 53.6517C30.3792 53.6018 30.4283 53.5111 30.4283 53.4149V41.3231C30.4283 41.2151 30.3667 41.1174 30.2698 41.0704L19.4248 35.8497H24.2792C24.6773 35.8497 25.0345 35.6794 25.2872 35.4087L35.5085 30.4988C35.6061 30.4517 35.667 30.3541 35.667 30.2461C35.667 30.1395 35.6054 30.0405 35.5085 29.9948L31.6751 28.1491C31.5983 28.1124 31.5083 28.1124 31.4322 28.1491L21.1652 33.0804H19.5342L21.7094 23.9357C22.1961 22.4334 23.1182 22.0776 23.6776 22.0104C24.7902 24.0804 26.9765 25.492 29.4868 25.492H33.6081C36.1212 25.492 38.3102 24.0791 39.4228 22.0049C39.9565 22.0686 40.8974 22.4078 41.3938 23.9357L43.5669 33.0804H41.9165L38.7367 31.5497C38.6598 31.513 38.5698 31.513 38.4937 31.5497L27.5968 36.7843C27.4992 36.83 27.4382 36.929 27.4382 37.0356C27.4382 37.1436 27.4998 37.2412 27.5968 37.2883L31.428 39.1326C31.4668 39.1499 31.5083 39.1596 31.5498 39.1596C31.5914 39.1596 31.6329 39.1499 31.671 39.1326L38.5027 35.8497H43.6818L32.8265 41.0704C32.7295 41.1174 32.6679 41.2151 32.6679 41.3231V53.4142C32.6679 53.5104 32.7171 53.6011 32.7988 53.651C32.8438 53.6807 32.8957 53.6946 32.9476 53.6946C32.9892 53.6946 33.0307 53.6849 33.0695 53.6676L44.3915 48.2157C44.4884 48.17 44.55 48.071 44.55 47.9644V35.8767C44.55 35.867 44.5438 35.8594 44.5431 35.8497H47.4729C48.2372 35.8497 48.8575 35.2294 48.8575 34.4651C48.8575 33.7001 48.2372 33.0804 47.4729 33.0804H46.413L44.0758 23.2448L44.0495 23.15C43.2644 20.6542 41.5911 19.6476 40.1815 19.3395C40.1919 19.1934 40.2037 19.0474 40.2037 18.8985V15.9437C41.8791 15.9098 43.3011 14.8333 43.8556 13.3393H49.1774V13.9762C49.1774 15.9285 50.7662 17.5174 52.7192 17.5174C54.6695 17.5174 56.2562 15.9285 56.2562 13.9762V9.98851C56.2562 8.56443 55.4081 7.3439 54.1959 6.78105V5.07036H61.3641C62.1284 5.07036 62.7487 4.45074 62.7487 3.68574C62.7501 2.92282 62.1298 2.30251 61.3655 2.30251ZM21.2005 41.2109C21.3847 40.8239 21.78 40.5754 22.2072 40.5754C22.3761 40.5754 22.5395 40.6134 22.6938 40.6875L26.865 42.6952C27.1343 42.8254 27.3365 43.0511 27.4355 43.3335C27.5345 43.616 27.5172 43.9192 27.3877 44.1892C27.1302 44.7257 26.4406 44.975 25.8937 44.7112L21.7232 42.7049C21.4539 42.5747 21.2511 42.349 21.1528 42.068C21.0531 41.7855 21.0704 41.4816 21.2005 41.2109ZM31.5505 20.1724C29.8475 20.1724 28.4587 18.7794 28.4587 17.0812C28.4587 15.3774 29.8475 13.9873 31.5505 13.9873C33.2508 13.9873 34.6396 15.3774 34.6396 17.0812C34.6396 18.7801 33.2508 20.1724 31.5505 20.1724Z" fill="#073B3A"/>
</svg>
